<svg width="200" height="76" viewBox="0 0 200 76" fill="none" xmlns="http://www.w3.org/2000/svg">
<g clip-path="url(#clip0_28_7)">
<rect x="5" y="37.6685" width="46.2" height="46.2" rx="9" transform="rotate(-45 5 37.6685)" fill="#0095FF"/>
<path d="M20.4205 38.432V37.0684L31.3977 31.4774V33.6593L22.9773 37.7161L23.0455 37.5797V37.9206L22.9773 37.7843L31.3977 41.8411V44.0229L20.4205 38.432ZM41.8317 26.2956L36.2067 47.1934H34.3658L39.9908 26.2956H41.8317ZM55.7727 38.432L44.7955 44.0229V41.8411L53.2159 37.7843L53.1477 37.9206V37.5797L53.2159 37.7161L44.7955 33.6593V31.4774L55.7727 37.0684V38.432Z" fill="white"/>
</g>
<path d="M93.1367 35.5845C95.6647 36.1285 97.4487 36.7765 98.4887 37.5285C99.5447 38.2645 100.073 39.4485 100.073 41.0805C100.073 41.8645 99.9287 42.5765 99.6407 43.2165C99.3687 43.8405 99.0087 44.3525 98.5607 44.7525C98.1287 45.1525 97.6167 45.4885 97.0247 45.7605C96.4487 46.0325 95.8727 46.2165 95.2967 46.3125C94.7367 46.4245 94.1687 46.4805 93.5927 46.4805C92.3607 46.4805 91.2727 46.3125 90.3287 45.9765C89.3847 45.6405 88.6327 45.1845 88.0727 44.6085C87.5127 44.0325 87.0807 43.4165 86.7767 42.7605C86.4727 42.1045 86.2727 41.3925 86.1767 40.6245H90.3047C90.5127 41.3445 90.8487 41.8645 91.3127 42.1845C91.7927 42.5045 92.5447 42.6645 93.5687 42.6645C95.1687 42.6645 95.9687 42.1925 95.9687 41.2485C95.9687 40.8485 95.7767 40.5685 95.3927 40.4085C95.0247 40.2325 94.2567 40.0245 93.0887 39.7845C92.9607 39.7685 92.8567 39.7525 92.7767 39.7365C92.7127 39.7205 92.6167 39.6965 92.4887 39.6645C92.3767 39.6325 92.2647 39.6085 92.1527 39.5925C91.3527 39.4325 90.6647 39.2485 90.0887 39.0405C89.5287 38.8325 88.9607 38.5445 88.3847 38.1765C87.8087 37.7925 87.3687 37.2965 87.0647 36.6885C86.7607 36.0805 86.6087 35.3605 86.6087 34.5285C86.6087 33.3605 86.9287 32.3525 87.5687 31.5045C88.2247 30.6405 89.0327 30.0165 89.9927 29.6325C90.9527 29.2485 91.9847 29.0565 93.0887 29.0565C95.2967 29.0565 96.9447 29.5765 98.0327 30.6165C99.1367 31.6565 99.7687 32.9925 99.9287 34.6245H95.8007C95.6567 34.0645 95.3847 33.6325 94.9847 33.3285C94.6007 33.0245 93.9687 32.8725 93.0887 32.8725C92.2567 32.8725 91.6487 33.0165 91.2647 33.3045C90.8967 33.5765 90.7127 33.9205 90.7127 34.3365C90.7127 34.6725 90.8567 34.9125 91.1447 35.0565C91.4487 35.2005 91.9847 35.3525 92.7527 35.5125C92.8327 35.5285 92.8967 35.5445 92.9447 35.5605C93.0087 35.5605 93.0727 35.5685 93.1367 35.5845ZM111.915 46.1685L107.955 40.3365H106.683V46.1685H102.603V29.3685H110.091C111.867 29.3685 113.267 29.8725 114.291 30.8805C115.331 31.8725 115.851 33.2405 115.851 34.9845C115.851 37.5605 114.731 39.2165 112.491 39.9525L116.907 46.1685H111.915ZM111.723 35.0325C111.723 33.8485 111.027 33.2565 109.635 33.2565H106.683V36.7605H109.635C111.027 36.7605 111.723 36.1845 111.723 35.0325ZM144.344 29.3685H148.52L144.464 46.1685H139.448L137.984 40.0965L137.12 34.1685L136.712 34.1445L135.872 40.0965L134.408 46.1685H129.368L125.312 29.3685H129.512L131.432 37.4085L131.936 41.3205L132.44 37.4085L134.36 29.3685H139.472L141.392 37.4085L141.92 41.4165L142.424 37.4085L144.344 29.3685ZM155.835 32.6565C157.995 32.6565 159.723 33.4085 161.019 34.9125C162.315 36.4005 162.859 38.2405 162.651 40.4325H153.027C153.123 41.3925 153.435 42.1205 153.963 42.6165C154.507 43.0965 155.163 43.3365 155.931 43.3365C156.491 43.3365 156.979 43.2085 157.395 42.9525C157.811 42.6805 158.099 42.3125 158.259 41.8485H162.459C162.027 43.4005 161.211 44.5605 160.011 45.3285C158.827 46.0965 157.467 46.4805 155.931 46.4805C153.851 46.4805 152.155 45.8245 150.843 44.5125C149.531 43.2005 148.875 41.5525 148.875 39.5685C148.875 37.6005 149.523 35.9605 150.819 34.6485C152.131 33.3205 153.803 32.6565 155.835 32.6565ZM155.811 35.8005C154.419 35.8005 153.531 36.5205 153.147 37.9605H158.403C158.259 37.3045 157.963 36.7845 157.515 36.4005C157.083 36.0005 156.515 35.8005 155.811 35.8005ZM172.478 32.6565C174.142 32.6565 175.542 33.3045 176.678 34.6005C177.83 35.8965 178.406 37.5525 178.406 39.5685C178.406 41.5845 177.838 43.2405 176.702 44.5365C175.566 45.8325 174.15 46.4805 172.454 46.4805C170.918 46.4805 169.67 45.9045 168.71 44.7525V46.1685H164.63V27.6885H168.71V34.4565C169.638 33.2565 170.894 32.6565 172.478 32.6565ZM169.502 41.7765C170.03 42.3205 170.694 42.5925 171.494 42.5925C172.294 42.5925 172.958 42.3205 173.486 41.7765C174.014 41.2165 174.278 40.4805 174.278 39.5685C174.278 38.6725 174.014 37.9445 173.486 37.3845C172.958 36.8245 172.294 36.5445 171.494 36.5445C170.694 36.5445 170.03 36.8245 169.502 37.3845C168.974 37.9445 168.71 38.6725 168.71 39.5685C168.71 40.4805 168.974 41.2165 169.502 41.7765ZM186.64 46.4805C184.848 46.4805 183.344 46.0805 182.128 45.2805C180.928 44.4805 180.208 43.3845 179.968 41.9925H184.096C184.32 42.9365 185.184 43.4085 186.688 43.4085C187.888 43.4085 188.488 43.1045 188.488 42.4965C188.488 42.2405 188.336 42.0565 188.032 41.9445C187.728 41.8165 186.992 41.6245 185.824 41.3685C183.888 40.9525 182.52 40.4405 181.72 39.8325C180.92 39.2245 180.52 38.3525 180.52 37.2165C180.52 35.7925 181.056 34.6805 182.128 33.8805C183.216 33.0805 184.712 32.6805 186.616 32.6805C190.136 32.6805 192.12 34.0565 192.568 36.8085H188.44C188.248 36.1045 187.584 35.7525 186.448 35.7525C185.248 35.7525 184.648 36.0645 184.648 36.6885C184.648 36.8965 184.736 37.0405 184.912 37.1205C185.104 37.1845 185.568 37.2965 186.304 37.4565C186.448 37.4885 186.552 37.5125 186.616 37.5285C188.808 38.0085 190.368 38.5445 191.296 39.1365C192.224 39.7125 192.688 40.6405 192.688 41.9205C192.688 43.3925 192.12 44.5205 190.984 45.3045C189.864 46.0885 188.416 46.4805 186.64 46.4805Z" fill="#ECFBFF"/>
<defs>
<clipPath id="clip0_28_7">
<rect x="5" y="37.6685" width="46.2" height="46.2" rx="9" transform="rotate(-45 5 37.6685)" fill="white"/>
</clipPath>
</defs>
</svg>
