<svg width="200" height="71" viewBox="0 0 200 71" fill="none" xmlns="http://www.w3.org/2000/svg">
<g clip-path="url(#clip0_10_13)">
<rect x="5" y="35.1" width="46.2" height="46.2" rx="9" transform="rotate(-45 5 35.1)" fill="#0095FF"/>
<path d="M20.4205 35.8636V34.5L31.3977 28.9091V31.0909L22.9773 35.1477L23.0455 35.0114V35.3523L22.9773 35.2159L31.3977 39.2727V41.4545L20.4205 35.8636ZM41.8317 23.7273L36.2067 44.625H34.3658L39.9908 23.7273H41.8317ZM55.7727 35.8636L44.7955 41.4545V39.2727L53.2159 35.2159L53.1477 35.3523V35.0114L53.2159 35.1477L44.7955 31.0909V28.9091L55.7727 34.5V35.8636Z" fill="#ECFBFF"/>
</g>
<path d="M93.1367 33.016C95.6647 33.56 97.4487 34.208 98.4887 34.96C99.5447 35.696 100.073 36.88 100.073 38.512C100.073 39.296 99.9287 40.008 99.6407 40.648C99.3687 41.272 99.0087 41.784 98.5607 42.184C98.1287 42.584 97.6167 42.92 97.0247 43.192C96.4487 43.464 95.8727 43.648 95.2967 43.744C94.7367 43.856 94.1687 43.912 93.5927 43.912C92.3607 43.912 91.2727 43.744 90.3287 43.408C89.3847 43.072 88.6327 42.616 88.0727 42.04C87.5127 41.464 87.0807 40.848 86.7767 40.192C86.4727 39.536 86.2727 38.824 86.1767 38.056H90.3047C90.5127 38.776 90.8487 39.296 91.3127 39.616C91.7927 39.936 92.5447 40.096 93.5687 40.096C95.1687 40.096 95.9687 39.624 95.9687 38.68C95.9687 38.28 95.7767 38 95.3927 37.84C95.0247 37.664 94.2567 37.456 93.0887 37.216C92.9607 37.2 92.8567 37.184 92.7767 37.168C92.7127 37.152 92.6167 37.128 92.4887 37.096C92.3767 37.064 92.2647 37.04 92.1527 37.024C91.3527 36.864 90.6647 36.68 90.0887 36.472C89.5287 36.264 88.9607 35.976 88.3847 35.608C87.8087 35.224 87.3687 34.728 87.0647 34.12C86.7607 33.512 86.6087 32.792 86.6087 31.96C86.6087 30.792 86.9287 29.784 87.5687 28.936C88.2247 28.072 89.0327 27.448 89.9927 27.064C90.9527 26.68 91.9847 26.488 93.0887 26.488C95.2967 26.488 96.9447 27.008 98.0327 28.048C99.1367 29.088 99.7687 30.424 99.9287 32.056H95.8007C95.6567 31.496 95.3847 31.064 94.9847 30.76C94.6007 30.456 93.9687 30.304 93.0887 30.304C92.2567 30.304 91.6487 30.448 91.2647 30.736C90.8967 31.008 90.7127 31.352 90.7127 31.768C90.7127 32.104 90.8567 32.344 91.1447 32.488C91.4487 32.632 91.9847 32.784 92.7527 32.944C92.8327 32.96 92.8967 32.976 92.9447 32.992C93.0087 32.992 93.0727 33 93.1367 33.016ZM111.915 43.6L107.955 37.768H106.683V43.6H102.603V26.8H110.091C111.867 26.8 113.267 27.304 114.291 28.312C115.331 29.304 115.851 30.672 115.851 32.416C115.851 34.992 114.731 36.648 112.491 37.384L116.907 43.6H111.915ZM111.723 32.464C111.723 31.28 111.027 30.688 109.635 30.688H106.683V34.192H109.635C111.027 34.192 111.723 33.616 111.723 32.464ZM144.344 26.8H148.52L144.464 43.6H139.448L137.984 37.528L137.12 31.6L136.712 31.576L135.872 37.528L134.408 43.6H129.368L125.312 26.8H129.512L131.432 34.84L131.936 38.752L132.44 34.84L134.36 26.8H139.472L141.392 34.84L141.92 38.848L142.424 34.84L144.344 26.8ZM155.835 30.088C157.995 30.088 159.723 30.84 161.019 32.344C162.315 33.832 162.859 35.672 162.651 37.864H153.027C153.123 38.824 153.435 39.552 153.963 40.048C154.507 40.528 155.163 40.768 155.931 40.768C156.491 40.768 156.979 40.64 157.395 40.384C157.811 40.112 158.099 39.744 158.259 39.28H162.459C162.027 40.832 161.211 41.992 160.011 42.76C158.827 43.528 157.467 43.912 155.931 43.912C153.851 43.912 152.155 43.256 150.843 41.944C149.531 40.632 148.875 38.984 148.875 37C148.875 35.032 149.523 33.392 150.819 32.08C152.131 30.752 153.803 30.088 155.835 30.088ZM155.811 33.232C154.419 33.232 153.531 33.952 153.147 35.392H158.403C158.259 34.736 157.963 34.216 157.515 33.832C157.083 33.432 156.515 33.232 155.811 33.232ZM172.478 30.088C174.142 30.088 175.542 30.736 176.678 32.032C177.83 33.328 178.406 34.984 178.406 37C178.406 39.016 177.838 40.672 176.702 41.968C175.566 43.264 174.15 43.912 172.454 43.912C170.918 43.912 169.67 43.336 168.71 42.184V43.6H164.63V25.12H168.71V31.888C169.638 30.688 170.894 30.088 172.478 30.088ZM169.502 39.208C170.03 39.752 170.694 40.024 171.494 40.024C172.294 40.024 172.958 39.752 173.486 39.208C174.014 38.648 174.278 37.912 174.278 37C174.278 36.104 174.014 35.376 173.486 34.816C172.958 34.256 172.294 33.976 171.494 33.976C170.694 33.976 170.03 34.256 169.502 34.816C168.974 35.376 168.71 36.104 168.71 37C168.71 37.912 168.974 38.648 169.502 39.208ZM186.64 43.912C184.848 43.912 183.344 43.512 182.128 42.712C180.928 41.912 180.208 40.816 179.968 39.424H184.096C184.32 40.368 185.184 40.84 186.688 40.84C187.888 40.84 188.488 40.536 188.488 39.928C188.488 39.672 188.336 39.488 188.032 39.376C187.728 39.248 186.992 39.056 185.824 38.8C183.888 38.384 182.52 37.872 181.72 37.264C180.92 36.656 180.52 35.784 180.52 34.648C180.52 33.224 181.056 32.112 182.128 31.312C183.216 30.512 184.712 30.112 186.616 30.112C190.136 30.112 192.12 31.488 192.568 34.24H188.44C188.248 33.536 187.584 33.184 186.448 33.184C185.248 33.184 184.648 33.496 184.648 34.12C184.648 34.328 184.736 34.472 184.912 34.552C185.104 34.616 185.568 34.728 186.304 34.888C186.448 34.92 186.552 34.944 186.616 34.96C188.808 35.44 190.368 35.976 191.296 36.568C192.224 37.144 192.688 38.072 192.688 39.352C192.688 40.824 192.12 41.952 190.984 42.736C189.864 43.52 188.416 43.912 186.64 43.912Z" fill="#042242"/>
<defs>
<clipPath id="clip0_10_13">
<rect x="5" y="35.1" width="46.2" height="46.2" rx="9" transform="rotate(-45 5 35.1)" fill="white"/>
</clipPath>
</defs>
</svg>
